<svg xmlns="http://www.w3.org/2000/svg" version="1.1" xmlns:xlink="http://www.w3.org/1999/xlink" xmlns:svgjs="http://svgjs.dev/svgjs" width="128" height="128" viewBox="0 0 128 128"><g transform="matrix(0.8046875,0,0,0.8046875,12.209817394882457,11.578397883639454)"><svg viewBox="0 0 97 98" data-background-color="#ffffff" preserveAspectRatio="xMidYMid meet" height="129" width="128" xmlns="http://www.w3.org/2000/svg" xmlns:xlink="http://www.w3.org/1999/xlink"><g id="tight-bounds" transform="matrix(1,0,0,1,0.2763124890143729,0.4902217917985041)"><svg viewBox="0 0 95.21979805270199 95.481" height="95.481" width="95.21979805270199"><g><svg viewBox="0 0 95.21979805270199 95.481" height="95.481" width="95.21979805270199"><g><svg viewBox="0 0 95.21979805270199 95.481" height="95.481" width="95.21979805270199"><g id="textblocktransform"><svg viewBox="0 0 95.21979805270199 95.481" height="95.481" width="95.21979805270199" id="textblock"><g><svg viewBox="0 0 95.21979805270199 95.481" height="95.481" width="95.21979805270199"><g><svg viewBox="0 0 95.21979805270199 95.481" height="95.481" width="95.21979805270199"><g><svg xmlns="http://www.w3.org/2000/svg" data-name="Layer 1" viewBox="1.089908220457549 1.0058543479792146 97.93118866988924 98.1998283614755" x="0" y="0" height="95.481" width="95.21979805270199" class="icon-icon-0" data-fill-palette-color="accent" id="icon-0"><path d="M95.91 80.54A11 11 0 1 1 78.44 93.61L55.34 54.56A60 60 0 0 1 43.56 60 6.64 6.64 0 0 1 31.65 64.87L13.79 41A6.64 6.64 0 0 1 21.79 30.95 59.9 59.9 0 0 1 51.79 8.52 6.64 6.64 0 0 1 63.69 3.67L81.56 27.54A6.64 6.64 0 0 1 73.56 37.59 60 60 0 0 1 65 47.36ZM57.33 98.54A4.91 4.91 0 0 0 62.24 93.63V90.63A4.91 4.91 0 0 0 57.33 85.72H55L54.79 85.15A11.56 11.56 0 0 0 43.95 77.63H19.47A11.56 11.56 0 0 0 8.64 85.16L8.42 85.73H6A4.91 4.91 0 0 0 1.09 90.64V93.64A4.91 4.91 0 0 0 6 98.58Z" fill="#5277a5" data-fill-palette-color="accent"></path></svg></g></svg></g></svg></g></svg></g></svg></g></svg></g><defs></defs></svg><rect width="95.21979805270199" height="95.481" fill="none" stroke="none" visibility="hidden"></rect></g></svg></g></svg>